<svg width="16" height="16" class="project_icon projectSectionPill--icon project_icon_inbox"><g fill="currentColor"><path d="M13.5 9.5V12a1.5 1.5 0 0 1-1.5 1.5H4A1.5 1.5 0 0 1 2.5 12V9.5h3.75a1.75 1.75 0 0 0 3.5 0h3.75z" opacity=".1"/><path d="M10.491 2a2 2 0 0 1 1.923 1.45l1.509 5.28a2 2 0 0 1 .077.55V12a2 2 0 0 1-2 2H4a2 2 0 0 1-2-2V9.28a2 2 0 0 1 .077-.55l1.509-5.28A2 2 0 0 1 5.509 2h4.982zm0 1H5.51a1 1 0 0 0-.962.725l-1.509 5.28A1 1 0 0 0 3 9.28V12a1 1 0 0 0 1 1h8a1 1 0 0 0 1-1V9.28a1 1 0 0 0-.038-.275l-1.51-5.28a1 1 0 0 0-.96-.725zM6.25 9a.5.5 0 0 1 .5.5 1.25 1.25 0 0 0 2.5 0 .5.5 0 0 1 .5-.5h1.75a.5.5 0 1 1 0 1h-1.306a2.25 2.25 0 0 1-4.388 0H4.5a.5.5 0 0 1 0-1z"/></g></svg>