<svg xmlns="http://www.w3.org/2000/svg" fill="currentColor" viewBox="0 0 24 24"><g><path fill-rule="evenodd" d="M6.608 12a5.392 5.392 0 1110.784 0 5.392 5.392 0 01-10.784 0zM12 15.5a3.5 3.5 0 110-7 3.5 3.5 0 010 7z" clip-rule="evenodd"></path><path d="M17.605 7.655a1.26 1.26 0 100-2.52 1.26 1.26 0 000 2.52z"></path><path fill-rule="evenodd" d="M12 1.5c-2.852 0-3.21.012-4.33.063-1.117.051-1.88.229-2.548.488a5.146 5.146 0 00-1.86 1.211 5.146 5.146 0 00-1.21 1.86c-.26.668-.438 1.431-.489 2.549C1.513 8.79 1.5 9.148 1.5 12c0 2.852.012 3.21.063 4.33.051 1.117.229 1.88.488 2.548.269.69.628 1.276 1.211 1.86.584.583 1.17.942 1.86 1.21.668.26 1.431.438 2.549.489 1.12.05 1.477.063 4.329.063 2.852 0 3.21-.012 4.33-.063 1.117-.051 1.88-.229 2.548-.488a5.149 5.149 0 001.86-1.211 5.149 5.149 0 001.21-1.86c.26-.668.438-1.431.489-2.549.05-1.12.063-1.477.063-4.329 0-2.852-.012-3.21-.063-4.33-.051-1.117-.229-1.88-.488-2.548a5.148 5.148 0 00-1.211-1.86 5.147 5.147 0 00-1.86-1.21c-.668-.26-1.431-.438-2.549-.489C15.21 1.513 14.852 1.5 12 1.5zm0 1.892c2.804 0 3.136.01 4.243.061 1.024.047 1.58.218 1.95.362.49.19.84.418 1.207.785.367.368.595.717.785 1.207.144.37.315.926.362 1.95.05 1.107.061 1.44.061 4.243 0 2.804-.01 3.136-.061 4.243-.047 1.024-.218 1.58-.362 1.95-.19.49-.418.84-.785 1.207a3.254 3.254 0 01-1.207.785c-.37.144-.926.315-1.95.362-1.107.05-1.44.061-4.243.061-2.804 0-3.136-.01-4.243-.061-1.024-.047-1.58-.218-1.95-.362-.49-.19-.84-.418-1.207-.785a3.253 3.253 0 01-.785-1.207c-.144-.37-.315-.926-.362-1.95-.05-1.107-.061-1.44-.061-4.243 0-2.804.01-3.136.061-4.243.047-1.024.218-1.58.362-1.95.19-.49.418-.84.785-1.207a3.253 3.253 0 011.207-.785c.37-.144.926-.315 1.95-.362 1.107-.05 1.44-.061 4.243-.061z" clip-rule="evenodd"></path><path fill-rule="evenodd" d="M6.608 12a5.392 5.392 0 1110.784 0 5.392 5.392 0 01-10.784 0zM12 15.5a3.5 3.5 0 110-7 3.5 3.5 0 010 7z" clip-rule="evenodd"></path><path d="M17.605 7.655a1.26 1.26 0 100-2.52 1.26 1.26 0 000 2.52z"></path><path fill-rule="evenodd" d="M12 1.5c-2.852 0-3.21.012-4.33.063-1.117.051-1.88.229-2.548.488a5.146 5.146 0 00-1.86 1.211 5.146 5.146 0 00-1.21 1.86c-.26.668-.438 1.431-.489 2.549C1.513 8.79 1.5 9.148 1.5 12c0 2.852.012 3.21.063 4.33.051 1.117.229 1.88.488 2.548.269.69.628 1.276 1.211 1.86.584.583 1.17.942 1.86 1.21.668.26 1.431.438 2.549.489 1.12.05 1.477.063 4.329.063 2.852 0 3.21-.012 4.33-.063 1.117-.051 1.88-.229 2.548-.488a5.149 5.149 0 001.86-1.211 5.149 5.149 0 001.21-1.86c.26-.668.438-1.431.489-2.549.05-1.12.063-1.477.063-4.329 0-2.852-.012-3.21-.063-4.33-.051-1.117-.229-1.88-.488-2.548a5.148 5.148 0 00-1.211-1.86 5.147 5.147 0 00-1.86-1.21c-.668-.26-1.431-.438-2.549-.489C15.21 1.513 14.852 1.5 12 1.5zm0 1.892c2.804 0 3.136.01 4.243.061 1.024.047 1.58.218 1.95.362.49.19.84.418 1.207.785.367.368.595.717.785 1.207.144.37.315.926.362 1.95.05 1.107.061 1.44.061 4.243 0 2.804-.01 3.136-.061 4.243-.047 1.024-.218 1.58-.362 1.95-.19.49-.418.84-.785 1.207a3.254 3.254 0 01-1.207.785c-.37.144-.926.315-1.95.362-1.107.05-1.44.061-4.243.061-2.804 0-3.136-.01-4.243-.061-1.024-.047-1.58-.218-1.95-.362-.49-.19-.84-.418-1.207-.785a3.253 3.253 0 01-.785-1.207c-.144-.37-.315-.926-.362-1.95-.05-1.107-.061-1.44-.061-4.243 0-2.804.01-3.136.061-4.243.047-1.024.218-1.58.362-1.95.19-.49.418-.84.785-1.207a3.253 3.253 0 011.207-.785c.37-.144.926-.315 1.95-.362 1.107-.05 1.44-.061 4.243-.061z" clip-rule="evenodd"></path></g></svg>