<svg width="24" height="24" xmlns="http://www.w3.org/2000/svg" fill="currentColor" viewBox="0 0 24 24"><g fill-rule="evenodd" clip-rule="evenodd"><path d="M12 3a9 9 0 100 18 9 9 0 000-18zM4.929 4.929A10 10 0 1119.07 19.07 10 10 0 014.93 4.93z"></path><path d="M10.008 9.051a.042.042 0 00-.008.026v5.846c0 .011.003.018.008.026a.11.11 0 00.042.034.152.152 0 00.15-.005l4.76-2.923a.09.09 0 00.034-.032.046.046 0 000-.046.09.09 0 00-.034-.032L10.2 9.022a.152.152 0 00-.15-.005.11.11 0 00-.043.034zM9 9.077c0-.911 1.031-1.331 1.722-.907l4.761 2.923c.69.423.69 1.391 0 1.814l-4.76 2.923c-.692.424-1.723.005-1.723-.907V9.077z"></path></g></svg>