<svg xmlns="http://www.w3.org/2000/svg" fill="currentColor" viewBox="0 0 24 24"><g><path d="M22.393 3.339a8.874 8.874 0 01-2.868 1.121A4.452 4.452 0 0016.23 3c-2.49 0-4.512 2.072-4.512 4.628 0 .363.039.715.116 1.054-3.75-.193-7.076-2.034-9.304-4.837a4.711 4.711 0 00-.61 2.329c0 1.605.796 3.022 2.008 3.852a4.424 4.424 0 01-2.046-.577v.056c0 2.244 1.556 4.115 3.622 4.539a4.305 4.305 0 01-1.19.162c-.29 0-.574-.027-.849-.081.575 1.838 2.24 3.177 4.216 3.212A8.91 8.91 0 011 19.256a12.564 12.564 0 006.919 2.077c8.303 0 12.842-7.05 12.842-13.167 0-.202-.004-.403-.011-.6A9.269 9.269 0 0023 5.17a8.84 8.84 0 01-2.592.729 4.621 4.621 0 001.985-2.56z"></path><path d="M22.393 3.339a8.874 8.874 0 01-2.868 1.121A4.452 4.452 0 0016.23 3c-2.49 0-4.512 2.072-4.512 4.628 0 .363.039.715.116 1.054-3.75-.193-7.076-2.034-9.304-4.837a4.711 4.711 0 00-.61 2.329c0 1.605.796 3.022 2.008 3.852a4.424 4.424 0 01-2.046-.577v.056c0 2.244 1.556 4.115 3.622 4.539a4.305 4.305 0 01-1.19.162c-.29 0-.574-.027-.849-.081.575 1.838 2.24 3.177 4.216 3.212A8.91 8.91 0 011 19.256a12.564 12.564 0 006.919 2.077c8.303 0 12.842-7.05 12.842-13.167 0-.202-.004-.403-.011-.6A9.269 9.269 0 0023 5.17a8.84 8.84 0 01-2.592.729 4.621 4.621 0 001.985-2.56z"></path></g></svg>