<svg xmlns="http://www.w3.org/2000/svg" fill="currentColor" viewBox="0 0 24 24"><g fill-rule="evenodd" clip-rule="evenodd"><path d="M3.598 4.242C6.958 4 11.995 4 11.995 4h.01s5.038 0 8.396.242l.155.016c.515.05 1.427.138 2.25.995.72.725.954 2.371.954 2.371S24 9.557 24 11.49v1.812c0 1.933-.24 3.866-.24 3.866s-.234 1.646-.954 2.371c-.823.858-1.735.946-2.25.996-.057.005-.108.01-.155.016-3.358.241-8.401.249-8.401.249s-6.24-.057-8.16-.24c-.091-.017-.202-.03-.327-.045-.609-.073-1.562-.187-2.32-.976-.719-.725-.953-2.37-.953-2.37S0 15.234 0 13.301V11.49c0-1.933.24-3.866.24-3.866s.234-1.646.954-2.37c.823-.858 1.735-.947 2.25-.996.057-.006.108-.01.154-.016zm12.408 7.912L9.521 8.787l.001 6.711 6.484-3.344z"></path><path d="M3.598 4.242C6.958 4 11.995 4 11.995 4h.01s5.038 0 8.396.242l.155.016c.515.05 1.427.138 2.25.995.72.725.954 2.371.954 2.371S24 9.557 24 11.49v1.812c0 1.933-.24 3.866-.24 3.866s-.234 1.646-.954 2.371c-.823.858-1.735.946-2.25.996-.057.005-.108.01-.155.016-3.358.241-8.401.249-8.401.249s-6.24-.057-8.16-.24c-.091-.017-.202-.03-.327-.045-.609-.073-1.562-.187-2.32-.976-.719-.725-.953-2.37-.953-2.37S0 15.234 0 13.301V11.49c0-1.933.24-3.866.24-3.866s.234-1.646.954-2.37c.823-.858 1.735-.947 2.25-.996.057-.006.108-.01.154-.016zm12.408 7.912L9.521 8.787l.001 6.711 6.484-3.344z"></path></g></svg>